<?xml version="1.0" standalone="no"?>
<!DOCTYPE svg PUBLIC "-//W3C//DTD SVG 20010904//EN"
 "http://www.w3.org/TR/2001/REC-SVG-20010904/DTD/svg10.dtd">
<svg version="1.0" xmlns="http://www.w3.org/2000/svg"
 width="500.000000pt" height="500.000000pt" viewBox="0 0 500.000000 500.000000"
 preserveAspectRatio="xMidYMid meet">

<g transform="translate(0.000000,500.000000) scale(0.100000,-0.100000)"
fill="#000000" stroke="none">
<path d="M2178 3484 c-145 -26 -309 -99 -428 -189 -65 -50 -175 -164 -218
-227 -50 -73 -109 -198 -138 -294 -26 -82 -28 -102 -28 -264 0 -152 3 -186 23
-260 27 -103 83 -225 142 -311 59 -88 189 -216 277 -273 247 -163 575 -209
850 -120 91 29 225 94 267 128 l30 25 -80 -26 c-61 -20 -108 -27 -198 -31
-140 -5 -239 8 -354 50 -88 32 -239 126 -288 179 l-30 32 30 -20 c64 -43 159
-84 243 -104 124 -30 293 -24 407 15 44 15 90 35 103 44 l22 17 -84 84 -85 84
-58 -25 c-310 -137 -672 38 -758 368 -19 73 -19 202 0 274 87 326 449 499 758
362 l58 -25 87 86 86 86 -67 31 c-95 43 -177 60 -292 60 -154 0 -296 -41 -420
-122 -17 -11 -8 1 22 29 100 94 250 168 402 199 118 23 295 15 410 -19 l83
-25 -28 24 c-40 31 -175 98 -254 125 -146 48 -336 61 -492 33z"/>
<path d="M3193 1999 c-49 -24 -109 -87 -129 -135 -8 -18 -14 -64 -14 -102 0
-89 34 -161 97 -206 64 -45 97 -54 198 -55 108 -1 169 22 226 86 102 113 88
289 -28 380 -55 43 -94 53 -207 53 -82 0 -109 -4 -143 -21z"/>
</g>
</svg>
